<svg width="18" height="14" viewBox="0 0 18 14" fill="none" xmlns="http://www.w3.org/2000/svg">
<path d="M1.3125 0.25H16.6875C17.412 0.25 18 0.838 18 1.5625V12.0625C18 12.4106 17.8617 12.7444 17.6156 12.9906C17.3694 13.2367 17.0356 13.375 16.6875 13.375H1.3125C0.964403 13.375 0.630564 13.2367 0.384422 12.9906C0.138281 12.7444 0 12.4106 0 12.0625L0 1.5625C0 0.838 0.588 0.25 1.3125 0.25ZM1.125 3.559V12.0625C1.125 12.166 1.209 12.25 1.3125 12.25H16.6875C16.7372 12.25 16.7849 12.2302 16.8201 12.1951C16.8552 12.1599 16.875 12.1122 16.875 12.0625V3.559L9.735 8.38375C9.291 8.68375 8.709 8.68375 8.265 8.38375L1.125 3.559ZM1.125 1.5625V2.2015L8.895 7.4515C8.92601 7.47246 8.96258 7.48366 9 7.48366C9.03742 7.48366 9.07399 7.47246 9.105 7.4515L16.875 2.2015V1.5625C16.875 1.51277 16.8552 1.46508 16.8201 1.42992C16.7849 1.39475 16.7372 1.375 16.6875 1.375H1.3125C1.26277 1.375 1.21508 1.39475 1.17992 1.42992C1.14475 1.46508 1.125 1.51277 1.125 1.5625Z" fill="black"/>
</svg>
