<svg width="50" height="50" viewBox="0 0 50 50" fill="none" xmlns="http://www.w3.org/2000/svg">
<circle cx="25" cy="25" r="25" fill="#5ECC69"/>
<g clip-path="url(#clip0_79_1239)">
<path d="M28.7969 24.9942C28.7969 24.408 28.7969 23.8922 28.7969 23.3738C28.7969 20.3754 28.7995 17.3743 28.7917 14.3758C28.7917 14.1101 28.8359 13.9955 29.1406 13.9981C31.5885 14.0163 34.0365 14.0163 36.4844 14.0215C37 14.0215 36.9974 14.0215 36.9974 14.5373C36.9974 21.5164 36.9974 28.498 36.9974 35.4771C36.9974 35.933 36.9974 35.9278 36.5495 35.9278C34.1016 35.9278 31.6536 35.9251 29.2057 35.9382C28.8906 35.9382 28.6979 35.8392 28.5182 35.5761C26.5885 32.7574 24.6458 29.9465 22.7109 27.133C22.2604 26.4791 21.8255 25.8174 21.3229 25.1713C21.3229 25.51 21.3229 25.846 21.3229 26.1847C21.3229 29.2822 21.3281 32.377 21.3307 35.4745C21.3307 35.9877 21.3307 35.9877 20.8151 35.9877C18.3464 35.9877 15.875 35.9825 13.4062 35.9981C13.0729 36.0033 13 35.9017 13 35.5813C13.0104 28.5345 13.0078 21.4903 13.0104 14.4462C13.0104 14.0137 13.0208 14.0059 13.4323 14.0085C15.8594 14.0163 18.2839 14.0267 20.7109 14.0241C21.0807 14.0241 21.3438 14.1075 21.5703 14.4488C22.7734 16.2489 24.0104 18.0282 25.2266 19.8205C26.3724 21.5034 27.5104 23.1941 28.6536 24.8796C28.6745 24.9108 28.7135 24.9317 28.7969 24.9994V24.9942Z" fill="white"/>
</g>
<defs>
<clipPath id="clip0_79_1239">
<rect width="24" height="22" fill="white" transform="translate(13 14)"/>
</clipPath>
</defs>
</svg>
