<svg width="50" height="50" viewBox="0 0 50 50" fill="none" xmlns="http://www.w3.org/2000/svg">
<circle cx="25" cy="25" r="24.5" fill="white" stroke="black"/>
<g clip-path="url(#clip0_79_1234)">
<path d="M31.9425 24.1676C31.9315 22.1259 32.8425 20.585 34.6866 19.4502C33.6548 17.9537 32.0962 17.1304 30.0381 16.9691C28.0898 16.8133 25.9604 18.1206 25.1811 18.1206C24.3579 18.1206 22.47 17.0247 20.9882 17.0247C17.9258 17.0748 14.6713 19.5002 14.6713 24.4346C14.6713 25.8921 14.9348 27.3978 15.4616 28.9517C16.1641 30.9933 18.6996 36 21.3449 35.9166C22.7279 35.8832 23.7048 34.9208 25.5049 34.9208C27.2501 34.9208 28.1557 35.9166 29.6978 35.9166C32.3651 35.8776 34.6591 31.3271 35.3287 29.2799C31.7504 27.5721 31.9425 24.2733 31.9425 24.1676ZM28.8362 15.0332C30.3345 13.2308 30.1973 11.5897 30.1534 11C28.8307 11.0779 27.2995 11.9123 26.4269 12.9415C25.4665 14.0429 24.9012 15.4059 25.0219 16.9413C26.4544 17.0525 27.7605 16.3071 28.8362 15.0332Z" fill="black"/>
</g>
<defs>
<clipPath id="clip0_79_1234">
<rect width="22" height="25" fill="white" transform="translate(14 11)"/>
</clipPath>
</defs>
</svg>
