<svg width="50" height="50" viewBox="0 0 50 50" fill="none" xmlns="http://www.w3.org/2000/svg">
<circle cx="25" cy="25" r="25" fill="#FEE500"/>
<path d="M24.9914 14C18.3533 14 13 18.4401 13 23.8305C13 27.3293 15.227 30.3931 18.5675 32.1425L17.4368 36.5205C17.4155 36.5862 17.4122 36.6566 17.4274 36.724C17.4425 36.7915 17.4754 36.8532 17.5225 36.9023C17.5911 36.9651 17.6794 36.9998 17.7709 37C17.8467 36.9937 17.9187 36.9626 17.9764 36.9112L22.8415 33.5101C23.5597 33.6129 24.2836 33.6662 25.0086 33.6699C31.6381 33.6699 37 29.2297 37 23.8305C37 18.4312 31.621 14 24.9914 14Z" fill="#392020"/>
</svg>
