<svg width="50" height="50" viewBox="0 0 50 50" fill="none" xmlns="http://www.w3.org/2000/svg">
<circle cx="25" cy="25" r="24.5" fill="white" stroke="black"/>
<g clip-path="url(#clip0_109_172)">
<path d="M36.9873 24.7343C36.9873 23.71 36.9057 22.9626 36.729 22.1875H25.239V26.8104H31.9833C31.8474 27.9593 31.1132 29.6894 29.4814 30.852L29.4585 31.0068L33.0915 33.8716L33.3431 33.8971C35.6547 31.724 36.9873 28.5267 36.9873 24.7343Z" fill="#4285F4"/>
<path d="M25.239 36.9132C28.5431 36.9132 31.317 35.8059 33.3431 33.8959L29.4814 30.8507C28.448 31.5843 27.061 32.0964 25.239 32.0964C22.0028 32.0964 19.2561 29.9235 18.277 26.9199L18.1335 26.9323L14.3559 29.9082L14.3065 30.048C16.3189 34.1172 20.4526 36.9132 25.239 36.9132Z" fill="#34A853"/>
<path d="M18.277 26.9208C18.0187 26.1457 17.8692 25.3152 17.8692 24.4571C17.8692 23.5989 18.0187 22.7684 18.2634 21.9933L18.2566 21.8282L14.4317 18.8046L14.3066 18.8652C13.4771 20.5538 13.0012 22.4501 13.0012 24.4571C13.0012 26.464 13.4771 28.3602 14.3066 30.0489L18.277 26.9208Z" fill="#FBBC05"/>
<path d="M25.239 16.8167C27.537 16.8167 29.0871 17.8271 29.971 18.6715L33.4247 15.2388C31.3036 13.2319 28.5432 12 25.239 12C20.4527 12 16.319 14.7959 14.3066 18.8652L18.2635 21.9933C19.2562 18.9898 22.0028 16.8167 25.239 16.8167Z" fill="#EB4335"/>
</g>
<defs>
<clipPath id="clip0_109_172">
<rect width="24" height="25" fill="white" transform="translate(13 12)"/>
</clipPath>
</defs>
</svg>
