<svg width="14" height="14" viewBox="0 0 14 14" fill="none" xmlns="http://www.w3.org/2000/svg">
<path d="M2.91667 12.8333C2.59583 12.8333 2.32108 12.719 2.09242 12.4903C1.86375 12.2616 1.74961 11.9871 1.75 11.6666V3.49996H2.91667V11.6666H9.33333V12.8333H2.91667ZM5.25 10.5C4.92917 10.5 4.65442 10.3856 4.42575 10.157C4.19708 9.92829 4.08295 9.65374 4.08333 9.33329V2.33329C4.08333 2.01246 4.19767 1.73771 4.42633 1.50904C4.655 1.28038 4.92956 1.16624 5.25 1.16663H10.5C10.8208 1.16663 11.0956 1.28096 11.3243 1.50963C11.5529 1.73829 11.6671 2.01285 11.6667 2.33329V9.33329C11.6667 9.65413 11.5523 9.92888 11.3237 10.1575C11.095 10.3862 10.8204 10.5003 10.5 10.5H5.25ZM5.25 9.33329H10.5V2.33329H5.25V9.33329Z" fill="#838895"/>
</svg>
