<svg width="20" height="27" viewBox="0 0 20 27" fill="none" xmlns="http://www.w3.org/2000/svg">
<g filter="url(#filter0_d_78_64)">
<path d="M10 9.58341C9.44749 9.58341 8.91758 9.36392 8.52688 8.97322C8.13618 8.58252 7.91669 8.05262 7.91669 7.50008C7.91669 6.94755 8.13618 6.41764 8.52688 6.02694C8.91758 5.63624 9.44749 5.41675 10 5.41675C10.5526 5.41675 11.0825 5.63624 11.4732 6.02694C11.8639 6.41764 12.0834 6.94755 12.0834 7.50008C12.0834 7.77367 12.0295 8.04458 11.9248 8.29734C11.8201 8.5501 11.6666 8.77977 11.4732 8.97322C11.2797 9.16668 11.05 9.32013 10.7973 9.42483C10.5445 9.52953 10.2736 9.58341 10 9.58341ZM10 1.66675C8.45292 1.66675 6.96919 2.28133 5.87523 3.37529C4.78127 4.46925 4.16669 5.95299 4.16669 7.50008C4.16669 11.8751 10 18.3334 10 18.3334C10 18.3334 15.8334 11.8751 15.8334 7.50008C15.8334 5.95299 15.2188 4.46925 14.1248 3.37529C13.0308 2.28133 11.5471 1.66675 10 1.66675Z" fill="white"/>
</g>
<defs>
<filter id="filter0_d_78_64" x="-4" y="0" width="28" height="28" filterUnits="userSpaceOnUse" color-interpolation-filters="sRGB">
<feFlood flood-opacity="0" result="BackgroundImageFix"/>
<feColorMatrix in="SourceAlpha" type="matrix" values="0 0 0 0 0 0 0 0 0 0 0 0 0 0 0 0 0 0 127 0" result="hardAlpha"/>
<feOffset dy="4"/>
<feGaussianBlur stdDeviation="2"/>
<feComposite in2="hardAlpha" operator="out"/>
<feColorMatrix type="matrix" values="0 0 0 0 0 0 0 0 0 0 0 0 0 0 0 0 0 0 0.25 0"/>
<feBlend mode="normal" in2="BackgroundImageFix" result="effect1_dropShadow_78_64"/>
<feBlend mode="normal" in="SourceGraphic" in2="effect1_dropShadow_78_64" result="shape"/>
</filter>
</defs>
</svg>
