<svg width="20" height="20" viewBox="0 0 20 20" fill="none" xmlns="http://www.w3.org/2000/svg">
<path d="M9.99999 9.58329C9.44746 9.58329 8.91755 9.3638 8.52685 8.9731C8.13615 8.5824 7.91666 8.05249 7.91666 7.49996C7.91666 6.94742 8.13615 6.41752 8.52685 6.02682C8.91755 5.63612 9.44746 5.41663 9.99999 5.41663C10.5525 5.41663 11.0824 5.63612 11.4731 6.02682C11.8638 6.41752 12.0833 6.94742 12.0833 7.49996C12.0833 7.77355 12.0294 8.04445 11.9247 8.29722C11.82 8.54998 11.6666 8.77964 11.4731 8.9731C11.2797 9.16655 11.05 9.32001 10.7972 9.42471C10.5445 9.52941 10.2736 9.58329 9.99999 9.58329ZM9.99999 1.66663C8.45289 1.66663 6.96916 2.28121 5.8752 3.37517C4.78124 4.46913 4.16666 5.95286 4.16666 7.49996C4.16666 11.875 9.99999 18.3333 9.99999 18.3333C9.99999 18.3333 15.8333 11.875 15.8333 7.49996C15.8333 5.95286 15.2187 4.46913 14.1248 3.37517C13.0308 2.28121 11.5471 1.66663 9.99999 1.66663Z" fill="black"/>
</svg>
