<svg width="25" height="25" viewBox="0 0 25 25" fill="none" xmlns="http://www.w3.org/2000/svg">
<path d="M17.3828 3.125C15.3662 3.125 13.6006 3.99219 12.5 5.45801C11.3994 3.99219 9.63379 3.125 7.61719 3.125C6.01194 3.12681 4.47296 3.76529 3.33788 4.90038C2.20279 6.03546 1.56431 7.57444 1.5625 9.17969C1.5625 16.0156 11.6982 21.5488 12.1299 21.7773C12.2436 21.8385 12.3708 21.8706 12.5 21.8706C12.6292 21.8706 12.7563 21.8385 12.8701 21.7773C13.3018 21.5488 23.4375 16.0156 23.4375 9.17969C23.4357 7.57444 22.7972 6.03546 21.6621 4.90038C20.527 3.76529 18.9881 3.12681 17.3828 3.125Z" fill="black"/>
</svg>
