<svg width="20" height="20" viewBox="0 0 20 20" fill="none" xmlns="http://www.w3.org/2000/svg">
<rect width="20" height="20" rx="4" fill="black"/>
<path d="M8 14.375V13.125H16V14.375H8ZM8 10.625V9.375H16V10.625H8ZM8 6.875V5.625H16V6.875H8ZM5.33333 15C4.96667 15 4.65267 14.8775 4.39133 14.6325C4.13 14.3875 3.99956 14.0933 4 13.75C4 13.4062 4.13067 13.1119 4.392 12.8669C4.65333 12.6219 4.96711 12.4996 5.33333 12.5C5.7 12.5 6.014 12.6225 6.27533 12.8675C6.53667 13.1125 6.66711 13.4067 6.66667 13.75C6.66667 14.0937 6.536 14.3881 6.27467 14.6331C6.01333 14.8781 5.69956 15.0004 5.33333 15ZM5.33333 11.25C4.96667 11.25 4.65267 11.1275 4.39133 10.8825C4.13 10.6375 3.99956 10.3433 4 10C4 9.65625 4.13067 9.36188 4.392 9.11688C4.65333 8.87188 4.96711 8.74958 5.33333 8.75C5.7 8.75 6.014 8.8725 6.27533 9.1175C6.53667 9.3625 6.66711 9.65667 6.66667 10C6.66667 10.3438 6.536 10.6381 6.27467 10.8831C6.01333 11.1281 5.69956 11.2504 5.33333 11.25ZM5.33333 7.5C4.96667 7.5 4.65267 7.3775 4.39133 7.1325C4.13 6.8875 3.99956 6.59333 4 6.25C4 5.90625 4.13067 5.61188 4.392 5.36688C4.65333 5.12188 4.96711 4.99958 5.33333 5C5.7 5 6.014 5.1225 6.27533 5.3675C6.53667 5.6125 6.66711 5.90667 6.66667 6.25C6.66667 6.59375 6.536 6.88813 6.27467 7.13313C6.01333 7.37813 5.69956 7.50042 5.33333 7.5Z" fill="white"/>
</svg>
