<svg width="25" height="25" viewBox="0 0 25 25" fill="none" xmlns="http://www.w3.org/2000/svg">
<path d="M23.4375 9.17969C23.4375 16.0156 13.3018 21.5488 12.8701 21.7773C12.7563 21.8385 12.6292 21.8706 12.5 21.8706C12.3708 21.8706 12.2436 21.8385 12.1299 21.7773L12.8998 5.15779C12.8757 5.12561 12.8512 5.09369 12.8265 5.06204C13.9336 3.83732 15.5551 3.125 17.3828 3.125M23.4375 9.17969C23.4357 7.57444 22.7972 6.03546 21.6621 4.90038C20.527 3.76529 18.9881 3.12681 17.3828 3.125M23.4375 9.17969L22.9375 9.18025M23.4375 9.17969H22.9375C22.9375 9.17987 22.9375 9.18007 22.9375 9.18025M17.3828 3.125L17.3822 3.625C17.3823 3.625 17.3824 3.625 17.3825 3.625M17.3828 3.125V3.625C17.3827 3.625 17.3826 3.625 17.3825 3.625M17.3825 3.625C18.8553 3.62674 20.2672 4.21254 21.3086 5.25393C22.35 6.29538 22.9358 7.70742 22.9375 9.18025M17.3825 3.625C15.5122 3.62508 13.8994 4.42691 12.8998 5.75822L12.5 6.29075L12.1002 5.75822C11.1006 4.42691 9.48783 3.62508 7.61746 3.625M22.9375 9.18025C22.9372 12.364 20.5594 15.3267 17.9863 17.5802C15.4393 19.8106 12.8351 21.2301 12.6362 21.3354L12.6332 21.337C12.5923 21.359 12.5465 21.3706 12.5 21.3706C12.4535 21.3706 12.4077 21.359 12.3668 21.337L12.3638 21.3354C12.1649 21.2301 9.56068 19.8106 7.01374 17.5802C4.4405 15.3266 2.06264 12.3639 2.0625 9.17996M2.0625 9.17996L7.61775 3.625C7.61765 3.625 7.61756 3.625 7.61746 3.625M2.0625 9.17996C2.06424 7.70723 2.65004 6.29531 3.69143 5.25393C4.73281 4.21254 6.14473 3.62674 7.61746 3.625M2.0625 9.17996L7.61746 3.625" fill="white" stroke="black"/>
</svg>
